<?xml version="1.0" encoding="UTF-8"?>
<svg id="Camada_1" data-name="Camada 1" xmlns="http://www.w3.org/2000/svg" version="1.1" viewBox="0 0 1424.13 397.57">
  <defs>
    <style>
      .cls-1 {
        fill: #6c8bc6;
      }

      .cls-1, .cls-2, .cls-3, .cls-4 {
        fill-rule: evenodd;
      }

      .cls-1, .cls-2, .cls-3, .cls-4, .cls-5, .cls-6 {
        stroke-width: 0px;
      }

      .cls-2 {
        fill: #00498e;
      }

      .cls-3 {
        fill: #ba9705;
      }

      .cls-4, .cls-6 {
        fill: #231f20;
      }

      .cls-5 {
        fill: #333;
      }
    </style>
  </defs>
  <path class="cls-5" d="M682.43,327.63v-10.84c-.44-.19-.98-.33-1.62-.44-.64-.11-1.21-.16-1.72-.16-2.02,0-3.53.57-4.54,1.73-1.01,1.16-1.51,2.78-1.51,4.85,0,2.3.43,3.9,1.29,4.81.86.91,2.13,1.37,3.82,1.37.76,0,1.52-.12,2.25-.36.74-.24,1.42-.56,2.03-.96M690.09,332.42c0,2.24-.32,4.13-.96,5.66-.63,1.53-1.53,2.73-2.68,3.6-1.15.89-2.54,1.52-4.16,1.91-1.63.39-3.47.58-5.51.58-1.66,0-3.29-.09-4.91-.3-1.61-.2-3.01-.44-4.19-.72v-5.99h.94c.94.37,2.08.71,3.43,1.02,1.35.31,2.55.46,3.62.46,1.42,0,2.57-.14,3.46-.4.89-.26,1.56-.63,2.04-1.11.44-.46.76-1.04.96-1.75.2-.71.3-1.56.3-2.55v-.45c-.92.76-1.95,1.35-3.07,1.79-1.13.44-2.37.66-3.75.66-3.35,0-5.93-1.01-7.75-3.02-1.82-2.01-2.73-5.08-2.73-9.2,0-1.97.28-3.67.83-5.11.55-1.43,1.34-2.68,2.34-3.74.94-1,2.09-1.77,3.46-2.33,1.37-.55,2.78-.83,4.21-.83,1.29,0,2.46.15,3.53.46,1.05.3,2.02.73,2.89,1.27l.28-1.06h7.43v21.17ZM650.07,322.94l-3.91-11.37-3.9,11.37h7.8ZM662.7,335.17h-8.45l-2.2-6.41h-11.76l-2.2,6.41h-8.24l11.72-31.71h9.42l11.71,31.71ZM605.02,320.14c-.04-1.61-.44-2.81-1.19-3.62-.75-.81-1.92-1.21-3.51-1.21-1.48,0-2.69.38-3.64,1.15-.95.76-1.48,1.99-1.6,3.69h9.95ZM612.65,324.63h-17.55c.12,1.88.83,3.31,2.14,4.3,1.31.99,3.24,1.49,5.8,1.49,1.62,0,3.19-.29,4.7-.87,1.52-.59,2.72-1.21,3.61-1.88h.85v6.15c-1.74.7-3.37,1.2-4.9,1.51-1.53.31-3.23.47-5.09.47-4.8,0-8.48-1.08-11.04-3.23-2.55-2.16-3.83-5.23-3.83-9.23s1.21-7.07,3.63-9.39c2.42-2.3,5.74-3.46,9.96-3.46,3.89,0,6.81.99,8.77,2.95,1.96,1.97,2.94,4.8,2.94,8.49v2.68ZM1252.7,284.92c-.41.31-.92.69-1.53,1.13-.61.44-1.19.78-1.72,1.04-.76.34-1.53.6-2.34.76-.81.17-1.7.25-2.66.25-2.27,0-4.18-.7-5.71-2.11-1.54-1.41-2.3-3.21-2.3-5.39,0-1.75.39-3.18,1.17-4.28.78-1.11,1.89-1.98,3.32-2.62,1.42-.63,3.18-1.09,5.29-1.36,2.1-.27,4.28-.47,6.54-.6v-.13c0-1.32-.54-2.23-1.62-2.73-1.07-.5-2.67-.76-4.77-.76-1.26,0-2.61.23-4.04.67-1.44.45-2.46.79-3.09,1.03h-.7v-5.77c.81-.21,2.13-.46,3.95-.76,1.82-.29,3.65-.44,5.48-.44,4.36,0,7.51.67,9.44,2.01,1.94,1.35,2.91,3.45,2.91,6.32v16.27h-7.61v-2.54ZM1252.7,281.22v-4.99c-1.03.09-2.16.2-3.37.35-1.21.15-2.12.33-2.75.52-.76.24-1.35.6-1.75,1.05-.41.46-.61,1.07-.61,1.82,0,.49.04.9.13,1.21.09.31.3.61.64.89.33.28.71.49,1.17.63.45.14,1.16.2,2.13.2.76,0,1.54-.16,2.33-.47.79-.31,1.48-.73,2.07-1.24ZM1231.18,260.13h-8.09v-5.82h8.09v5.82ZM1230.97,287.46h-7.67v-23.92h7.67v23.92ZM1218.96,270.85h-.68c-.33-.12-.85-.2-1.58-.26-.72-.06-1.32-.09-1.81-.09-1.09,0-2.06.07-2.89.21-.84.15-1.74.39-2.7.73v16.02h-7.67v-23.92h7.67v3.51c1.69-1.45,3.16-2.41,4.4-2.89,1.25-.47,2.4-.71,3.45-.71.27,0,.57,0,.92.02.34.01.64.04.89.07v7.31ZM1186.96,284.92c-.41.31-.92.69-1.53,1.13-.61.44-1.19.78-1.72,1.04-.76.34-1.53.6-2.34.76-.81.17-1.7.25-2.66.25-2.27,0-4.18-.7-5.71-2.11-1.53-1.41-2.3-3.21-2.3-5.39,0-1.75.39-3.18,1.17-4.28.79-1.11,1.89-1.98,3.32-2.62,1.42-.63,3.18-1.09,5.28-1.36,2.1-.27,4.28-.47,6.54-.6v-.13c0-1.32-.54-2.23-1.62-2.73-1.07-.5-2.67-.76-4.77-.76-1.26,0-2.61.23-4.04.67-1.44.45-2.46.79-3.09,1.03h-.71v-5.77c.81-.21,2.13-.46,3.95-.76,1.82-.29,3.65-.44,5.48-.44,4.36,0,7.51.67,9.44,2.01,1.94,1.35,2.91,3.45,2.91,6.32v16.27h-7.61v-2.54ZM1186.96,281.22v-4.99c-1.03.09-2.16.2-3.37.35-1.21.15-2.12.33-2.75.52-.76.24-1.35.6-1.75,1.05-.41.46-.61,1.07-.61,1.82,0,.49.04.9.13,1.21.09.31.3.61.64.89.33.28.71.49,1.17.63.45.14,1.16.2,2.13.2.76,0,1.54-.16,2.33-.47.79-.31,1.48-.73,2.07-1.24ZM1165.44,287.46h-7.71v-11.87c0-.97-.05-1.93-.15-2.89-.1-.96-.27-1.66-.52-2.12-.28-.53-.7-.91-1.24-1.16-.55-.24-1.31-.36-2.29-.36-.7,0-1.4.11-2.12.34-.72.23-1.5.59-2.33,1.08v16.95h-7.67v-33.14h7.67v11.86c1.36-1.06,2.67-1.88,3.93-2.45,1.26-.57,2.65-.85,4.19-.85,2.58,0,4.6.76,6.06,2.26,1.46,1.5,2.19,3.75,2.19,6.75v15.57ZM1134.36,287.46h-7.71v-11.87c0-.97-.05-1.93-.15-2.89-.1-.96-.27-1.66-.52-2.12-.28-.53-.7-.91-1.24-1.16-.55-.24-1.31-.36-2.29-.36-.7,0-1.4.11-2.12.34-.72.23-1.5.59-2.33,1.08v16.95h-7.67v-23.92h7.67v2.64c1.36-1.06,2.67-1.88,3.93-2.45,1.26-.57,2.65-.85,4.19-.85,2.58,0,4.6.76,6.06,2.26,1.46,1.5,2.19,3.75,2.19,6.75v15.57ZM1097.3,272.42c-.04-1.61-.44-2.81-1.19-3.62-.75-.81-1.92-1.21-3.51-1.21-1.48,0-2.69.38-3.64,1.15-.95.76-1.48,1.99-1.6,3.69h9.95ZM1104.93,276.92h-17.55c.12,1.88.83,3.31,2.15,4.3,1.31.99,3.24,1.49,5.8,1.49,1.62,0,3.18-.29,4.7-.87,1.52-.59,2.72-1.21,3.61-1.88h.85v6.15c-1.74.7-3.37,1.2-4.9,1.51-1.53.31-3.23.47-5.09.47-4.8,0-8.48-1.08-11.03-3.23-2.55-2.16-3.83-5.24-3.83-9.23s1.21-7.07,3.63-9.39c2.42-2.3,5.74-3.46,9.96-3.46,3.89,0,6.81.99,8.77,2.95,1.96,1.97,2.94,4.8,2.94,8.49v2.68ZM1066.47,279.92v-10.84c-.44-.19-.98-.33-1.62-.44-.64-.11-1.21-.16-1.72-.16-2.02,0-3.53.58-4.54,1.73-1.01,1.16-1.51,2.78-1.51,4.85,0,2.3.43,3.9,1.29,4.81.86.91,2.13,1.37,3.82,1.37.76,0,1.52-.12,2.25-.36.74-.24,1.42-.56,2.03-.96ZM1074.13,284.71c0,2.25-.32,4.13-.96,5.66-.63,1.53-1.53,2.73-2.68,3.6-1.15.89-2.54,1.52-4.16,1.91-1.63.39-3.47.58-5.51.58-1.66,0-3.29-.09-4.91-.3-1.61-.2-3.01-.44-4.19-.72v-5.99h.94c.94.37,2.08.71,3.43,1.02,1.34.3,2.55.46,3.62.46,1.42,0,2.57-.14,3.46-.4s1.56-.63,2.04-1.11c.44-.46.76-1.04.96-1.75.2-.71.3-1.56.3-2.55v-.45c-.92.76-1.95,1.35-3.07,1.79-1.13.44-2.37.66-3.75.66-3.35,0-5.93-1.01-7.75-3.02-1.82-2.01-2.73-5.08-2.73-9.2,0-1.97.28-3.67.83-5.11.55-1.43,1.34-2.68,2.34-3.74.94-1,2.09-1.77,3.46-2.33,1.37-.55,2.78-.83,4.21-.83,1.29,0,2.46.15,3.53.46,1.05.3,2.02.73,2.89,1.27l.28-1.06h7.43v21.17ZM1043.83,287.46h-7.71v-11.87c0-.97-.05-1.93-.15-2.89-.1-.96-.27-1.66-.52-2.12-.28-.53-.7-.91-1.24-1.16-.54-.24-1.31-.36-2.29-.36-.7,0-1.4.11-2.12.34-.72.23-1.5.59-2.33,1.08v16.95h-7.67v-23.92h7.67v2.64c1.36-1.06,2.67-1.88,3.93-2.45,1.26-.57,2.65-.85,4.19-.85,2.58,0,4.6.76,6.06,2.26,1.46,1.5,2.19,3.75,2.19,6.75v15.57ZM1013.37,287.46h-22.94v-31.71h22.94v6.13h-14.8v5.47h13.73v6.14h-13.73v7.84h14.8v6.14ZM962.05,272.42c-.04-1.61-.44-2.81-1.19-3.62-.75-.81-1.92-1.21-3.51-1.21-1.48,0-2.69.38-3.64,1.15-.95.76-1.48,1.99-1.6,3.69h9.95ZM969.68,276.92h-17.55c.12,1.88.83,3.31,2.14,4.3,1.31.99,3.24,1.49,5.8,1.49,1.62,0,3.18-.29,4.7-.87,1.52-.59,2.72-1.21,3.61-1.88h.85v6.15c-1.74.7-3.37,1.2-4.9,1.51-1.53.31-3.23.47-5.09.47-4.8,0-8.48-1.08-11.03-3.23-2.55-2.16-3.83-5.24-3.83-9.23s1.21-7.07,3.63-9.39c2.42-2.3,5.74-3.46,9.96-3.46,3.89,0,6.81.99,8.77,2.95,1.96,1.97,2.94,4.8,2.94,8.49v2.68ZM931.22,280.86v-11.73c-.54-.23-1.11-.39-1.71-.49-.6-.1-1.14-.15-1.64-.15-2.02,0-3.53.63-4.54,1.88-1.01,1.26-1.51,3-1.51,5.23,0,2.34.4,4.04,1.21,5.1.81,1.05,2.11,1.59,3.9,1.59.69,0,1.43-.13,2.21-.39.78-.26,1.48-.61,2.07-1.03ZM938.88,287.46h-7.66v-2.49c-1.32,1.08-2.56,1.88-3.71,2.39-1.15.52-2.48.77-3.98.77-2.91,0-5.24-1.12-6.99-3.37-1.75-2.25-2.62-5.27-2.62-9.07,0-2.03.29-3.83.88-5.4.59-1.57,1.4-2.91,2.42-4.03.97-1.06,2.14-1.89,3.51-2.48,1.38-.59,2.76-.89,4.14-.89s2.6.15,3.52.46c.92.3,1.86.69,2.83,1.16v-10.19h7.66v33.14ZM893.47,287.46h-7.67v-33.14h7.67v33.14ZM871.14,284.92c-.41.31-.92.69-1.53,1.13-.61.44-1.18.78-1.72,1.04-.76.34-1.53.6-2.34.76-.81.17-1.7.25-2.66.25-2.27,0-4.18-.7-5.71-2.11-1.53-1.41-2.3-3.21-2.3-5.39,0-1.75.39-3.18,1.17-4.28.79-1.11,1.89-1.98,3.32-2.62,1.42-.63,3.18-1.09,5.29-1.36,2.1-.27,4.28-.47,6.54-.6v-.13c0-1.32-.54-2.23-1.62-2.73-1.08-.5-2.67-.76-4.77-.76-1.27,0-2.61.23-4.04.67-1.44.45-2.46.79-3.09,1.03h-.71v-5.77c.81-.21,2.13-.46,3.96-.76,1.82-.29,3.65-.44,5.48-.44,4.36,0,7.51.67,9.44,2.01,1.94,1.35,2.91,3.45,2.91,6.32v16.27h-7.61v-2.54ZM871.14,281.22v-4.99c-1.03.09-2.16.2-3.36.35-1.21.15-2.12.33-2.75.52-.76.24-1.35.6-1.75,1.05-.41.46-.61,1.07-.61,1.82,0,.49.04.9.13,1.21.09.31.3.61.64.89.33.28.71.49,1.17.63.45.14,1.16.2,2.13.2.76,0,1.54-.16,2.33-.47.79-.31,1.48-.73,2.07-1.24ZM849.62,287.46h-7.71v-11.87c0-.97-.05-1.93-.15-2.89-.1-.96-.27-1.66-.52-2.12-.28-.53-.7-.91-1.24-1.16-.54-.24-1.31-.36-2.29-.36-.7,0-1.4.11-2.11.34-.72.23-1.5.59-2.33,1.08v16.95h-7.67v-23.92h7.67v2.64c1.36-1.06,2.67-1.88,3.93-2.45,1.26-.57,2.65-.85,4.19-.85,2.58,0,4.6.76,6.06,2.26,1.46,1.5,2.19,3.75,2.19,6.75v15.57ZM810.66,281.32c.5-.61.87-1.34,1.12-2.2.25-.86.38-2.05.38-3.57,0-1.4-.13-2.58-.39-3.53-.26-.95-.61-1.71-1.07-2.28-.45-.58-1-.99-1.63-1.23-.64-.25-1.33-.36-2.07-.36s-1.39.09-1.97.3c-.58.2-1.13.6-1.65,1.19-.47.55-.84,1.32-1.12,2.28-.28.97-.42,2.18-.42,3.64,0,1.31.12,2.44.36,3.4.25.95.6,1.72,1.07,2.3.45.56,1,.96,1.63,1.21.63.26,1.35.38,2.16.38.7,0,1.36-.12,1.99-.35.63-.23,1.17-.63,1.61-1.19ZM820.09,275.5c0,3.93-1.14,7.04-3.44,9.3-2.29,2.27-5.51,3.4-9.66,3.4s-7.37-1.13-9.66-3.4c-2.29-2.26-3.44-5.37-3.44-9.3s1.16-7.07,3.46-9.33c2.31-2.25,5.52-3.39,9.64-3.39s7.4,1.14,9.68,3.41c2.28,2.28,3.42,5.37,3.42,9.31ZM788.61,260.13h-8.09v-5.82h8.09v5.82ZM788.4,287.46h-7.67v-23.92h7.67v23.92ZM765.83,279.92v-10.84c-.44-.19-.98-.33-1.62-.44-.64-.11-1.21-.16-1.72-.16-2.02,0-3.53.58-4.54,1.73-1.01,1.16-1.51,2.78-1.51,4.85,0,2.3.43,3.9,1.29,4.81.86.91,2.13,1.37,3.82,1.37.76,0,1.52-.12,2.25-.36.74-.24,1.42-.56,2.03-.96ZM773.49,284.71c0,2.25-.32,4.13-.96,5.66-.63,1.53-1.53,2.73-2.68,3.6-1.15.89-2.54,1.52-4.16,1.91-1.63.39-3.47.58-5.51.58-1.66,0-3.29-.09-4.91-.3-1.61-.2-3.01-.44-4.19-.72v-5.99h.94c.94.37,2.08.71,3.43,1.02,1.35.3,2.55.46,3.62.46,1.42,0,2.57-.14,3.46-.4.89-.26,1.56-.63,2.04-1.11.44-.46.75-1.04.96-1.75.2-.71.3-1.56.3-2.55v-.45c-.92.76-1.95,1.35-3.07,1.79-1.13.44-2.37.66-3.75.66-3.35,0-5.93-1.01-7.75-3.02-1.82-2.01-2.73-5.08-2.73-9.2,0-1.97.28-3.67.83-5.11.55-1.43,1.34-2.68,2.34-3.74.94-1,2.09-1.77,3.46-2.33,1.37-.55,2.78-.83,4.21-.83,1.29,0,2.46.15,3.53.46,1.05.3,2.02.73,2.89,1.27l.28-1.06h7.43v21.17ZM737.2,272.42c-.04-1.61-.44-2.81-1.19-3.62-.75-.81-1.92-1.21-3.51-1.21-1.48,0-2.69.38-3.64,1.15-.95.76-1.48,1.99-1.6,3.69h9.95ZM744.82,276.92h-17.55c.12,1.88.83,3.31,2.14,4.3,1.31.99,3.24,1.49,5.8,1.49,1.62,0,3.19-.29,4.7-.87,1.52-.59,2.72-1.21,3.61-1.88h.85v6.15c-1.74.7-3.36,1.2-4.9,1.51-1.53.31-3.23.47-5.09.47-4.8,0-8.48-1.08-11.03-3.23-2.55-2.16-3.83-5.24-3.83-9.23s1.21-7.07,3.63-9.39c2.42-2.3,5.74-3.46,9.96-3.46,3.89,0,6.81.99,8.78,2.95,1.96,1.97,2.94,4.8,2.94,8.49v2.68ZM718.12,287.46h-9.99l-8.65-11.63h-3.77v11.63h-8.14v-31.71h13.71c1.88,0,3.49.1,4.83.32,1.35.21,2.62.67,3.8,1.38,1.19.71,2.14,1.63,2.84,2.76.71,1.13,1.05,2.55,1.05,4.25,0,2.34-.55,4.25-1.63,5.73-1.09,1.48-2.64,2.71-4.65,3.69l10.59,13.59ZM705.36,265.46c0-.8-.17-1.48-.49-2.05-.33-.57-.89-1.01-1.69-1.34-.55-.23-1.2-.36-1.93-.42-.74-.05-1.6-.08-2.58-.08h-2.96v8.54h2.51c1.31,0,2.41-.07,3.29-.19.88-.13,1.61-.42,2.21-.87.57-.44.99-.93,1.25-1.46.26-.53.39-1.24.39-2.14ZM657.3,281.32c.5-.61.87-1.34,1.12-2.2.25-.86.38-2.05.38-3.57,0-1.4-.13-2.58-.39-3.53-.25-.95-.61-1.71-1.07-2.28-.45-.58-1-.99-1.64-1.23-.64-.25-1.33-.36-2.06-.36s-1.4.09-1.97.3c-.58.2-1.13.6-1.65,1.19-.47.55-.84,1.32-1.12,2.28-.28.97-.41,2.18-.41,3.64,0,1.31.12,2.44.36,3.4.25.95.6,1.72,1.07,2.3.45.56,1,.96,1.63,1.21.63.26,1.35.38,2.16.38.7,0,1.36-.12,1.99-.35.63-.23,1.17-.63,1.61-1.19ZM666.74,275.5c0,3.93-1.14,7.04-3.44,9.3-2.29,2.27-5.51,3.4-9.65,3.4s-7.37-1.13-9.66-3.4c-2.29-2.26-3.44-5.37-3.44-9.3s1.16-7.07,3.46-9.33c2.31-2.25,5.52-3.39,9.64-3.39s7.4,1.14,9.68,3.41c2.28,2.28,3.42,5.37,3.42,9.31ZM635.25,287.46h-7.71v-11.87c0-.97-.05-1.93-.15-2.89-.1-.96-.27-1.66-.52-2.12-.28-.53-.7-.91-1.24-1.16-.54-.24-1.31-.36-2.29-.36-.7,0-1.4.11-2.12.34-.72.23-1.5.59-2.33,1.08v16.95h-7.67v-33.14h7.67v11.86c1.36-1.06,2.67-1.88,3.93-2.45,1.26-.57,2.65-.85,4.19-.85,2.58,0,4.6.76,6.06,2.26,1.46,1.5,2.19,3.75,2.19,6.75v15.57ZM603.98,287.46h-7.67v-33.14h7.67v33.14ZM583.27,272.42c-.04-1.61-.44-2.81-1.19-3.62-.75-.81-1.92-1.21-3.51-1.21-1.48,0-2.69.38-3.64,1.15-.95.76-1.48,1.99-1.6,3.69h9.95ZM590.9,276.92h-17.55c.12,1.88.83,3.31,2.14,4.3,1.31.99,3.24,1.49,5.8,1.49,1.62,0,3.18-.29,4.7-.87,1.52-.59,2.72-1.21,3.61-1.88h.85v6.15c-1.74.7-3.36,1.2-4.9,1.51s-3.23.47-5.09.47c-4.8,0-8.48-1.08-11.04-3.23-2.55-2.16-3.83-5.24-3.83-9.23s1.21-7.07,3.63-9.39c2.42-2.3,5.74-3.46,9.96-3.46,3.89,0,6.81.99,8.78,2.95,1.96,1.97,2.94,4.8,2.94,8.49v2.68ZM562.25,279.87c0,2.47-1.11,4.46-3.32,5.98-2.21,1.51-5.24,2.27-9.1,2.27-2.13,0-4.06-.2-5.79-.6-1.74-.4-3.13-.84-4.18-1.32v-6.3h.7c.39.27.83.57,1.33.89.5.31,1.22.66,2.15,1.03.79.33,1.69.6,2.7.84,1,.24,2.09.36,3.24.36,1.5,0,2.62-.17,3.34-.5.72-.33,1.08-.83,1.08-1.48,0-.58-.21-1-.64-1.27-.42-.26-1.24-.52-2.43-.75-.57-.13-1.34-.27-2.31-.42-.97-.15-1.86-.33-2.65-.54-2.17-.57-3.79-1.45-4.84-2.65-1.05-1.2-1.58-2.69-1.58-4.48,0-2.31,1.09-4.22,3.27-5.74,2.17-1.53,5.15-2.29,8.93-2.29,1.79,0,3.5.18,5.14.54,1.64.36,2.92.75,3.85,1.16v6.05h-.66c-1.14-.79-2.43-1.42-3.88-1.91-1.46-.49-2.93-.73-4.42-.73-1.24,0-2.28.18-3.13.52-.84.33-1.27.82-1.27,1.45,0,.57.19,1,.58,1.3.39.3,1.29.6,2.71.89.78.15,1.62.31,2.52.46.9.15,1.81.33,2.72.56,2.01.52,3.5,1.35,4.47,2.48.97,1.14,1.45,2.55,1.45,4.23ZM534.42,287.46h-7.71v-11.87c0-.97-.05-1.93-.15-2.89-.1-.96-.27-1.66-.52-2.12-.28-.53-.7-.91-1.24-1.16-.55-.24-1.31-.36-2.29-.36-.7,0-1.4.11-2.12.34-.72.23-1.5.59-2.33,1.08v16.95h-7.67v-23.92h7.67v2.64c1.36-1.06,2.67-1.88,3.93-2.45,1.26-.57,2.65-.85,4.19-.85,2.58,0,4.6.76,6.06,2.26,1.46,1.5,2.19,3.75,2.19,6.75v15.57ZM495.45,281.32c.5-.61.87-1.34,1.12-2.2s.38-2.05.38-3.57c0-1.4-.13-2.58-.39-3.53-.26-.95-.61-1.71-1.07-2.28-.45-.58-1-.99-1.64-1.23-.64-.25-1.33-.36-2.06-.36s-1.4.09-1.97.3c-.58.2-1.13.6-1.65,1.19-.47.55-.84,1.32-1.12,2.28-.28.97-.42,2.18-.42,3.64,0,1.31.12,2.44.36,3.4.25.95.6,1.72,1.07,2.3.45.56,1,.96,1.63,1.21.63.26,1.35.38,2.16.38.7,0,1.36-.12,1.99-.35.63-.23,1.17-.63,1.61-1.19ZM504.89,275.5c0,3.93-1.14,7.04-3.44,9.3-2.29,2.27-5.51,3.4-9.65,3.4s-7.37-1.13-9.66-3.4c-2.29-2.26-3.44-5.37-3.44-9.3s1.16-7.07,3.46-9.33c2.31-2.25,5.52-3.39,9.64-3.39s7.4,1.14,9.68,3.41c2.28,2.28,3.42,5.37,3.42,9.31ZM463.63,288.08c-2.36,0-4.53-.35-6.53-1.05-1.99-.69-3.71-1.73-5.14-3.1-1.43-1.38-2.54-3.1-3.34-5.15-.78-2.06-1.18-4.44-1.18-7.14,0-2.51.38-4.79,1.13-6.83.76-2.04,1.85-3.8,3.28-5.26,1.38-1.4,3.09-2.49,5.13-3.26,2.04-.77,4.26-1.15,6.67-1.15,1.34,0,2.54.07,3.61.22,1.07.15,2.07.35,2.97.59.94.27,1.81.58,2.58.91.78.33,1.45.64,2.04.92v7.69h-.94c-.39-.34-.89-.75-1.5-1.21-.6-.47-1.29-.93-2.06-1.39-.78-.45-1.63-.84-2.54-1.15-.91-.31-1.88-.46-2.92-.46-1.15,0-2.24.17-3.28.54-1.04.36-1.99.97-2.88,1.8-.84.81-1.51,1.88-2.03,3.21-.52,1.34-.78,2.95-.78,4.86s.28,3.65.84,4.99c.57,1.33,1.27,2.39,2.12,3.15.87.79,1.83,1.34,2.89,1.67,1.07.33,2.12.5,3.16.5s1.98-.15,2.95-.44c.97-.3,1.87-.71,2.69-1.21.7-.42,1.34-.86,1.94-1.32.6-.46,1.08-.87,1.47-1.21h.85v7.58c-.79.36-1.56.69-2.27,1-.73.31-1.48.58-2.28.81-1.03.3-2.01.52-2.92.68-.91.15-2.16.23-3.75.23Z"/>
  <path class="cls-5" d="M1112.48,332.63c-.41.31-.92.69-1.53,1.13-.61.44-1.19.78-1.72,1.04-.76.34-1.53.6-2.34.75-.81.17-1.7.25-2.66.25-2.28,0-4.18-.7-5.71-2.11-1.53-1.41-2.3-3.21-2.3-5.39,0-1.75.39-3.18,1.17-4.28.79-1.11,1.89-1.98,3.32-2.62,1.42-.63,3.18-1.09,5.29-1.36,2.1-.27,4.28-.47,6.54-.6v-.13c0-1.32-.54-2.23-1.62-2.73-1.07-.5-2.67-.76-4.77-.76-1.26,0-2.61.23-4.04.67-1.44.45-2.46.79-3.09,1.03h-.71v-5.77c.81-.21,2.13-.46,3.96-.76,1.82-.29,3.65-.44,5.48-.44,4.36,0,7.51.67,9.44,2.01,1.94,1.35,2.91,3.45,2.91,6.32v16.27h-7.61v-2.54ZM1112.48,328.93v-4.99c-1.03.09-2.16.2-3.37.35-1.21.15-2.12.33-2.75.52-.76.24-1.35.6-1.75,1.05-.41.46-.61,1.07-.61,1.82,0,.49.04.9.13,1.21.09.31.3.61.64.89.33.28.71.49,1.17.62.45.14,1.16.2,2.13.2.76,0,1.54-.16,2.33-.47.79-.31,1.48-.73,2.07-1.24ZM1090.96,307.84h-8.09v-5.82h8.09v5.82ZM1090.75,335.17h-7.67v-23.92h7.67v23.92ZM1076.04,335.17h-7.71v-11.87c0-.97-.05-1.93-.15-2.89-.1-.96-.27-1.66-.52-2.12-.28-.53-.7-.91-1.24-1.16-.55-.24-1.31-.36-2.29-.36-.7,0-1.4.11-2.12.34-.72.23-1.5.59-2.33,1.08v16.95h-7.67v-33.14h7.67v11.86c1.36-1.06,2.67-1.88,3.93-2.45,1.26-.57,2.65-.85,4.19-.85,2.58,0,4.6.76,6.06,2.26,1.46,1.5,2.19,3.75,2.19,6.75v15.57ZM1037.35,332.63c-.41.31-.92.69-1.53,1.13-.61.44-1.18.78-1.72,1.04-.75.34-1.53.6-2.34.75-.82.17-1.7.25-2.66.25-2.28,0-4.18-.7-5.72-2.11-1.53-1.41-2.3-3.21-2.3-5.39,0-1.75.39-3.18,1.17-4.28.78-1.11,1.89-1.98,3.32-2.62,1.42-.63,3.18-1.09,5.29-1.36,2.1-.27,4.28-.47,6.54-.6v-.13c0-1.32-.54-2.23-1.62-2.73-1.08-.5-2.67-.76-4.77-.76-1.27,0-2.61.23-4.04.67-1.44.45-2.47.79-3.09,1.03h-.71v-5.77c.81-.21,2.13-.46,3.95-.76,1.82-.29,3.65-.44,5.48-.44,4.36,0,7.51.67,9.44,2.01,1.94,1.35,2.91,3.45,2.91,6.32v16.27h-7.6v-2.54ZM1037.35,328.93v-4.99c-1.03.09-2.16.2-3.37.35-1.21.15-2.12.33-2.75.52-.76.24-1.35.6-1.75,1.05-.41.46-.61,1.07-.61,1.82,0,.49.04.9.13,1.21.09.31.3.61.64.89.33.28.71.49,1.17.62.45.14,1.16.2,2.13.2.76,0,1.54-.16,2.33-.47.78-.31,1.48-.73,2.07-1.24ZM1008.73,325.33c0-1-.2-1.78-.59-2.33-.39-.55-1.06-.96-1.99-1.23-.64-.18-1.52-.28-2.65-.3-1.12-.01-2.29-.02-3.51-.02h-1.79v7.9h.6c2.3,0,3.95,0,4.94-.02.99-.01,1.9-.2,2.74-.55.86-.36,1.44-.83,1.76-1.42.32-.59.48-1.27.48-2.04ZM1006.73,312.42c0-.52-.13-1.05-.4-1.58-.26-.52-.73-.92-1.39-1.17-.6-.23-1.34-.35-2.23-.37-.89-.02-2.13-.04-3.74-.04h-.76v6.71h1.28c1.29,0,2.39-.02,3.3-.06.91-.04,1.62-.19,2.15-.43.73-.33,1.22-.75,1.45-1.27.22-.52.34-1.12.34-1.8ZM1017.21,325.46c0,1.53-.3,2.9-.92,4.11-.62,1.21-1.47,2.21-2.54,3.01-1.25.93-2.63,1.6-4.12,2-1.5.4-3.4.6-5.7.6h-13.84v-31.71h12.31c2.56,0,4.43.08,5.61.26,1.18.17,2.36.55,3.53,1.13,1.21.61,2.1,1.43,2.69,2.46.6,1.03.89,2.21.89,3.53,0,1.53-.41,2.89-1.21,4.06-.81,1.18-1.96,2.09-3.43,2.74v.17c2.08.41,3.72,1.27,4.94,2.56,1.21,1.29,1.82,3,1.82,5.11ZM960.08,332.63c-.41.31-.92.69-1.53,1.13-.61.44-1.19.78-1.72,1.04-.76.34-1.53.6-2.34.75-.81.17-1.7.25-2.66.25-2.28,0-4.18-.7-5.72-2.11-1.53-1.41-2.3-3.21-2.3-5.39,0-1.75.39-3.18,1.17-4.28.78-1.11,1.89-1.98,3.32-2.62,1.42-.63,3.18-1.09,5.29-1.36,2.1-.27,4.28-.47,6.54-.6v-.13c0-1.32-.54-2.23-1.62-2.73-1.08-.5-2.67-.76-4.77-.76-1.26,0-2.61.23-4.04.67-1.44.45-2.46.79-3.09,1.03h-.71v-5.77c.81-.21,2.13-.46,3.96-.76,1.82-.29,3.65-.44,5.48-.44,4.36,0,7.51.67,9.44,2.01,1.94,1.35,2.91,3.45,2.91,6.32v16.27h-7.6v-2.54ZM960.08,328.93v-4.99c-1.03.09-2.16.2-3.37.35-1.21.15-2.12.33-2.75.52-.76.24-1.35.6-1.75,1.05-.41.46-.61,1.07-.61,1.82,0,.49.04.9.13,1.21.09.31.3.61.64.89.33.28.71.49,1.17.62.45.14,1.16.2,2.13.2.76,0,1.54-.16,2.33-.47.79-.31,1.48-.73,2.07-1.24ZM930.69,328.57v-11.73c-.55-.23-1.11-.39-1.71-.49-.6-.1-1.14-.14-1.64-.14-2.02,0-3.53.62-4.54,1.88-1.01,1.26-1.51,3-1.51,5.23,0,2.34.4,4.04,1.21,5.1.81,1.05,2.11,1.58,3.9,1.58.69,0,1.43-.13,2.21-.39.78-.26,1.48-.61,2.07-1.03ZM938.35,335.17h-7.66v-2.49c-1.32,1.08-2.56,1.88-3.71,2.39-1.15.52-2.48.77-3.98.77-2.91,0-5.24-1.12-6.99-3.37-1.74-2.25-2.62-5.27-2.62-9.07,0-2.03.29-3.83.88-5.4.59-1.57,1.4-2.91,2.42-4.03.97-1.06,2.14-1.89,3.51-2.48,1.38-.59,2.76-.89,4.14-.89s2.6.15,3.52.46c.92.3,1.86.69,2.83,1.16v-10.19h7.66v33.14ZM885.53,332.63c-.41.31-.92.69-1.53,1.13-.61.44-1.18.78-1.72,1.04-.75.34-1.53.6-2.34.75-.81.17-1.7.25-2.66.25-2.27,0-4.18-.7-5.71-2.11-1.53-1.41-2.3-3.21-2.3-5.39,0-1.75.39-3.18,1.17-4.28.79-1.11,1.89-1.98,3.32-2.62,1.42-.63,3.18-1.09,5.29-1.36,2.1-.27,4.28-.47,6.54-.6v-.13c0-1.32-.54-2.23-1.62-2.73-1.08-.5-2.67-.76-4.77-.76-1.26,0-2.61.23-4.04.67-1.44.45-2.46.79-3.09,1.03h-.71v-5.77c.81-.21,2.13-.46,3.95-.76,1.82-.29,3.65-.44,5.48-.44,4.36,0,7.51.67,9.44,2.01,1.94,1.35,2.91,3.45,2.91,6.32v16.27h-7.61v-2.54ZM885.53,328.93v-4.99c-1.03.09-2.16.2-3.36.35-1.21.15-2.12.33-2.75.52-.76.24-1.35.6-1.75,1.05-.41.46-.61,1.07-.61,1.82,0,.49.04.9.13,1.21.09.31.3.61.64.89.33.28.71.49,1.17.62.45.14,1.16.2,2.13.2.76,0,1.54-.16,2.33-.47.79-.31,1.48-.73,2.07-1.24ZM864.02,307.84h-8.09v-5.82h8.09v5.82ZM863.81,335.17h-7.67v-23.92h7.67v23.92ZM833.36,318.22v16.95h-7.71v-11.95c0-1.16-.03-2.15-.08-2.97-.06-.82-.22-1.48-.47-1.99-.25-.51-.64-.89-1.16-1.12-.52-.23-1.24-.35-2.18-.35-.75,0-1.48.15-2.19.46-.71.31-1.35.63-1.91.97v16.95h-7.67v-23.92h7.67v2.64c1.31-1.03,2.58-1.85,3.79-2.43,1.21-.58,2.54-.87,4.01-.87,1.58,0,2.97.35,4.17,1.05,1.21.71,2.15,1.74,2.83,3.1,1.53-1.29,3.02-2.3,4.47-3.05,1.45-.73,2.87-1.11,4.26-1.11,2.59,0,4.55.78,5.89,2.32,1.34,1.55,2.01,3.78,2.01,6.69v15.57h-7.71v-11.95c0-1.18-.02-2.17-.07-2.98-.05-.81-.2-1.47-.46-1.98-.24-.51-.63-.89-1.15-1.12-.52-.23-1.27-.35-2.22-.35-.64,0-1.26.11-1.88.33-.61.22-1.35.59-2.23,1.1ZM795.04,329.03c.5-.61.87-1.35,1.12-2.2.25-.86.38-2.05.38-3.57,0-1.4-.13-2.58-.39-3.53-.25-.95-.61-1.71-1.07-2.28-.45-.58-1-.99-1.64-1.23-.64-.25-1.33-.36-2.06-.36s-1.4.1-1.97.3c-.58.2-1.13.6-1.65,1.19-.47.55-.84,1.32-1.12,2.28-.28.97-.41,2.18-.41,3.64,0,1.31.12,2.44.36,3.4.25.95.6,1.72,1.07,2.3.45.56,1,.96,1.63,1.21.63.26,1.35.39,2.16.39.7,0,1.36-.12,1.99-.35.63-.23,1.17-.63,1.61-1.18ZM804.48,323.22c0,3.93-1.14,7.04-3.44,9.3-2.29,2.27-5.51,3.4-9.66,3.4s-7.37-1.13-9.66-3.4c-2.29-2.26-3.44-5.37-3.44-9.3s1.16-7.07,3.46-9.33c2.3-2.25,5.52-3.39,9.64-3.39s7.4,1.14,9.68,3.41c2.28,2.28,3.42,5.37,3.42,9.31ZM772.99,335.17h-7.71v-11.87c0-.97-.05-1.93-.14-2.89-.1-.96-.27-1.66-.52-2.12-.28-.53-.7-.91-1.24-1.16-.55-.24-1.31-.36-2.29-.36-.7,0-1.4.11-2.12.34-.72.23-1.5.59-2.33,1.08v16.95h-7.67v-23.92h7.67v2.64c1.36-1.06,2.67-1.88,3.93-2.45,1.26-.57,2.65-.85,4.19-.85,2.58,0,4.6.76,6.06,2.26,1.46,1.5,2.19,3.75,2.19,6.75v15.57ZM734.02,329.03c.5-.61.87-1.35,1.12-2.2.25-.86.38-2.05.38-3.57,0-1.4-.13-2.58-.39-3.53-.25-.95-.61-1.71-1.07-2.28-.45-.58-1-.99-1.64-1.23-.64-.25-1.33-.36-2.06-.36s-1.4.1-1.97.3c-.58.2-1.13.6-1.65,1.19-.47.55-.84,1.32-1.12,2.28-.28.97-.42,2.18-.42,3.64,0,1.31.12,2.44.36,3.4.25.95.6,1.72,1.07,2.3.45.56,1,.96,1.63,1.21.63.26,1.35.39,2.16.39.7,0,1.36-.12,1.99-.35.63-.23,1.17-.63,1.61-1.18ZM743.46,323.22c0,3.93-1.14,7.04-3.44,9.3-2.29,2.27-5.51,3.4-9.65,3.4s-7.37-1.13-9.66-3.4c-2.29-2.26-3.44-5.37-3.44-9.3s1.16-7.07,3.46-9.33c2.31-2.25,5.52-3.39,9.64-3.39s7.4,1.14,9.68,3.41c2.28,2.28,3.42,5.37,3.42,9.31ZM714.67,318.56h-.68c-.33-.12-.85-.2-1.58-.25-.72-.06-1.32-.09-1.81-.09-1.09,0-2.06.07-2.89.21-.84.15-1.74.39-2.7.73v16.02h-7.67v-23.92h7.67v3.51c1.69-1.45,3.16-2.41,4.4-2.89,1.25-.47,2.4-.71,3.45-.71.27,0,.57,0,.91.02.34.02.64.04.89.07v7.31Z"/>
  <g>
    <path class="cls-4" d="M14.44,50.09h286.54v265c0,9.54-7.83,17.35-17.4,17.35h-110.22c-7.24,0-12.22,5.21-15.35,15.52-2.97-8.86-7.36-15.56-16.18-15.52H31.84c-9.57,0-17.4-7.81-17.4-17.35V50.09Z"/>
    <path class="cls-2" d="M297.24,53.79v261.1c0,7.64-6.28,13.91-13.94,13.91h-110.11c-7.19,0-13.78,5.42-15.13,11.11-1.77-5.71-8.68-11.01-15.41-11.11H32.12c-7.66,0-13.94-6.26-13.94-13.91V53.79h279.06Z"/>
    <path class="cls-4" d="M124.46,270.76v14.79c17.84,9.09,48.11,8.9,67.45-.09v-14.79l17.47-7.94c.84-.67,1.12-1.72.56-3.32l-.56-1.92v-13.26c.04-1.62-.72-2.44-2.29-2.46h-6.88c-2.78,0-3.41-1.64-1.32-4.22,3.44-8.41,1.12-17.06-6.97-25.94-1.62-.69-2.8-2.04-3-4.84-.32-3.44-1.55-6.03-3.53-7.91-.05-2.75-.69-6.43-2.6-6.79l.18-1.05-.73-1.35c.29-1.48.2-2.81-.29-4,2.63-1.58,5-3.57,7.15-5.92-.22,1.41-.14,2.72.15,3.96.33,1.85,1.04,3.44,1.57,5.16,1.59,2.56,1.38,6.19.51,10.21-.3,3.7.37,6.8,2.19,9.19,2.92,3.46,6.81,5.57,10.52,4.53-1.54-4.59-.61-10.63.53-15.66l.56-3.59-.2-10.58c.14-1.74.46-3.49,1.41-5.29l1.59-4.87c15.31-59.39-49.73-84.45-79.27-53.73,5.29,1.2,9.94,2.73,12.86,6.75,1.67,2.29.67,3.73-1.51,3.04-.51-.16-3.15-.83-5.81-1.21-1.14-.25-2.49-.56-3.62-.55l-.49.02-.45.05-.42.08-.38.11-.34.14-.29.19-.23.24-.15.29-.06.33.03.36.12.38.2.39c.15.36.29.71.42,1.07.09.27.18.54.27.81.08.27.15.53.22.8.06.27.12.53.18.8.05.27.09.53.13.8.03.26.06.53.09.79.02.26.03.53.04.79,0,.26,0,.52,0,.79-.01.26-.03.52-.06.79-.04.32-.08.64-.14.96l-1.35,1.31c-.12.15-.24.31-.36.47-.11.16-.21.32-.31.49-.1.17-.18.35-.27.52-.08.18-.15.37-.22.56l-.12.39-.09.41-.06.43-.04.45v.47s.01.48.01.48l.05.51.09.53.12.55.16.59c.14.31.27.62.35.95.03.14.04.27.05.41,0,.15-.01.29-.04.44-.05.24-.12.47-.21.7l-.31.41-.29.44-.25.44-.21.44-.18.44-.14.43-.11.43-.08.43-.05.43-.03.42v.42s0,.42,0,.42l.03.41.04.41.12.81c.11.66.24,1.33.35,1.99l.11.78.04.39.03.39v.39s0,.39,0,.39l-.03.38-.05.38-.08.38-.1.38-.13.38c-.26.51-.53,1.01-.8,1.5-.33.57-.66,1.14-1.01,1.7-.39.63-.8,1.25-1.21,1.86-.82,1.21-1.66,2.4-2.49,3.61-.05.11-.09.21-.13.33-.04.14-.07.27-.1.41-.02.14-.03.27-.03.4,0,.13,0,.26.03.39.02.13.05.25.08.37.04.12.08.23.13.35.06.11.11.21.18.31.07.1.14.19.23.28.08.08.16.14.24.22.64.55,1.3,1.09,1.86,1.73.15.18.29.36.42.55l.06.12.05.13.04.14.03.16.03.35v.39c-.02.59-.09,1.18-.11,1.77v.69s.03.23.03.23l.03.23.05.22.06.22.08.21.1.2.12.2.15.18.17.17.19.16.22.14.09.05c-.15.12-.29.25-.42.39l-.19.23-.16.24-.13.25-.09.26-.05.27-.02.27.02.28.05.28.09.28c.06.15.12.29.19.43.08.15.17.3.26.45.09.13.17.25.26.38l.08.19.06.23.03.27c0,.16,0,.31,0,.47-.01.17-.03.34-.05.52-.05.37-.13.73-.21,1.09l-.09.36c-.15.54-.32,1.07-.51,1.6-.05.15-.09.3-.13.46-.03.15-.06.3-.08.45-.01.15-.02.3-.02.45,0,.15.01.29.03.44.02.14.05.28.09.42l.14.41c.06.13.12.26.19.39.08.13.16.25.25.37.1.12.19.24.3.35.11.11.23.22.35.33l.27.21.55.33.57.3.59.28.61.26.63.23.66.21c.34.1.68.19,1.03.28.36.08.72.16,1.08.23.37.07.75.13,1.12.19.39.05.78.1,1.17.14.41.04.81.07,1.22.1.66.04,1.63.07,2.29.09.25.54.49,1.08.72,1.62.48,1.23.91,2.56,1.28,3.97.02.08.04.15.06.22h0c.48,1.88.88,3.91,1.18,6.07.22,1.6-.18,2.44-1.21,2.52-6.47,2.19-12.07,4.81-16.2,8.17-6.64,5.25-8.56,11.28-2.87,18.59,1.19,1.99.54,3.07-1.96,3.03l-8.2-.13c-1.89,0-2.79.9-2.7,2.69l.34,9.21c-.05,1.97-.25,3.82-.84,5.35-.83,1.88-.83,3.39.4,4.37l17.94,7.7Z"/>
    <path class="cls-3" d="M166.38,194.04h0c-1.27-5.22-2.61-9.79-6.14-11.59,1.2-11.56-10.34-2.6-2.25,1.61-.12,1.41-.45,3.39-.05,5.3,1.27,6.05-.52,8.74-.87,10.21-.81,3.4-.4,6.36.56,9.1.62-1.07,1.33-1.4,2.14-.98-.13.66.28,3.1.25,3.1-.35,3.86,1.7,9.63,6.01,11.5.41.15.6.56.29,1.14-1.02,1.4-2.03,2.65-3.04,3.42-1.56,1.53-2.37,3.2-2.43,4.99,1.03-.21,2.09-1.1,3.18-2.68,2.62-.41,4.53-2.94,3.56-5.78-1.31-1.95-2.48-3.97-3.37-6.13-.35-1.33-.05-2.05.88-2.17,1.4,3.6,3.53,7.05,6.4,10.36-1.24,2.44-2.88,4.4-4.85,5.97-3.27,2.32-4.7,4.95-5.46,7.7l-2.43.92c.88,1.75,3.68,1.84,8.39.27-.07-1.81.81-3.54,2.65-5.21,1.55-.65,2.6-2.49,3.42-4.88l.33.22-1.27,3.26c-1.36,1.34-2.28,2.68-2.76,4.01-2.97,4.76,6.69,4.15,8.61,1.57-3.21-2.56-4.5-6.1-3.48-8.68,1.16-1.95,1.43-3.69.83-5.21-1.72-2.77-3.44-5.23-5.17-7.4,1.6,1.3,4.25,2.47,4.53,5.04.52,1.31,1.37,2.36,2.73,3.02-3.02,2.37-.97,11.13,2.77,11.8.38-.82.01-1.73-1.09-2.73.84-.39,1.68-.22,2.53.53-.7,6.98,10.25,10.28,6.53-.32,1.84.87,2.51-.17,1.23-1.29l-4-2.8c-1.88-.99-1.8-3.35-.11-6.86l.42-.07c.34,4.09,1.64,6.58,3.9,7.46-.6-2.68,1.93-3.23,2.39-.63l-.39,5.57c-.28,4.59,2.96,4.78,2.77,0l-.32-3.92c1.08-1.54,1.94-2.54,2.32-2.35l-.88,3.26c-1.59,4.37,2.12,4.22,2.6-2.31.19-4.84-.95-8.79-3.2-11.98-.15.93,0,2.02.81,3.47,1.08,3.51-2.35,4.16-2.84.49l.14-2.56c-.64-1.34-.93-2.71-.7-4.13-1.1-1.3-1.6-2.72-1.82-4.2.11-1.08-.83-2.27-2.55-3.17-1.48-3.52-3.32-4.61-5.41-4.04-.86.13-.98.51-.35,1.16,3.69,2.04,6.51,5.17,7.76,10.26l.42,1.26c-.9.49-.9,1.34-.49,2.35-.48.3-1.01.42-1.58.46-.52-.7-.69-1.46-.35-2.3.43-3.06-1.04-4.55-3.23-5.95l-.25.56c.32.53.35.89.09,1.09.51.52.94,1.11,1.24,1.87.27.4.2.66-.03.85.38.34.92,1.97,1.5,3.88h0c.65.45,1.24,1.18,1.72,2.23.22,1.29,1.16,2.16,2.42,2.84.95.76,1.46,1.86,1.54,3.32-3.09-.06-5.56-3.84-7.72-8.05-.63-1.1-1.57-1.98-3.16-2.38-2.05-1.68-.46-4.64,1.93-1.95,1.05-3.32-1.88-5.97-7.54-8.17.18.71.78,1.35,2,1.89l-.14.52c-3.05-.72-5.6-1.89-7.26-3.83-4.53-8.09,6.1-3.54,8.71,1.45.83-4.03-3.19-7.78-7.77-8.81l-4.88-4.22-.26,2.71-1.25.09c1.53,2.24,2.34,4.48,1.86,6.72-.27.9-.59.97-.95.21l-1.19-1.68.14,2.14c-1.73-.17-2.23-2.36-1.69-5.13-1.74-2.94-1.56-5.75.53-8.42l1.93,1.82ZM161.98,211.53c2.71.38,5.03,1.98,6.97,4.8-.51-.59-1.01-1.15-1.52-1.68-.89-.57-2.22-.82-3.92-.81l-1.53-2.3Z"/>
    <path class="cls-3" d="M130.56,129.55c15.29.22,33.32,16.51,39.98,36.14-1.71.26-3.03.94-3.96,2.06-3.53-7.65-7.92-14.44-13.18-19.89l-.35,1.08c.33.99,1.38,2.22,2.88,3.59.97.82,1.76,1.96,2.56,3.27-.92-.07-1.64-.2-2.15-.37l.1,1.15c-1.09-.74-2.06-1.59-2.84-2.57,0,1.11.61,2.18,1.9,3.16,1.54,1.1,3.09,2.05,4.63,2.95.53.43.93.93,1.19,1.49-1.77.48-1.58,1.48.33,2.85.14.1.33.17.49.28-.87.3-1.34,2.38-.8,3.48.52.93,1.06,1.84,1.38,2.98l.68-1.72,1.4-.39.45,1.02c-.92,1.71.02,4.76.94,5.47-1.7,2.71-1.94,5.67-2.05,7.93-1.94-1.89-3.04-6.51-2.39-9.25,0-.59-.36-.68-1.09-.25-.92-.03-1.34-.73-1.41-1.89-.2-.7-1.29-.15-.99.52.1.19.23.38.37.55.43.47.8.95,1,1.5v1.09s-1.05,0-1.05,0c-.62-.91-1.38-2.09-1.61-2.12-.14-.18-.28-.38-.47-.54-.61-.47-1.17-.92-1.58-1.36-.4-.43-1.02-.81-1.43-1.18l-.18-.37c.32-1.6-.46-2.8-1.64-3.74-.21-.1-.37-.22-.51-.36l-.38-.37c.89-.98,2.2-1.22,3.28-.3.83.78,1.48,2.13,1.74,3.76,1.26-1.55.8-3.06-.72-4.36-1.37-.11-2.51-.3-3.23-.68-.82-.64-.25-2.05,1.04-1.53,1.74.81,1.06-1.49-.6-1.51-.53-.01-1.15.08-1.89.29-1.27.08-2.38-.08-2.99-.95.98-.71,1.18-1.41.22-2.09-2.25-1.6-1.14-3.53.98-3.27l1.7,1c.9.52,1.41-.3.52-1.07-.65-.52-1.49-.99-2.38-1.44l-1.04-1.44c-.92.89-1.87,1.32-2.85,1.19-1.8-.32-1.46-2,.59-1.88.72-.06.56-.83-.08-.67-1.06.24-1.44.71-2.06.81-1.06.18-1.9-.19-2.38-1.08-.35-.86-.51-1.72-.49-2.58l1.43-.78c-.93-.66-2.47-.72-4.5-.59l-1.75-.02c.64-1.48,1.76-2.48,3.5-2.49-1.77-.72-3.35-.7-4.63.42-1.79-.34-3.18.2-4.17,1.63h-.8c-1.45-4.12-.13-6.21,3.28-6.76-.56,1.72-.16,2.49,1.67,1.89l2.54-.56c.37.1.75.41,1.13.92.49.4,1.22.66,2.2.77l3.94.48.83,1.24.73.48,1.03-.06c.08,1.78,1.22,2.63,3.07,2.89-.59,2.14.34,3.26,2.21,3.68l-.57-2.17.11-2.9c-6.25-5.77-13.11-8.6-19.92-9.06.02-2.81-.27-5.29-.95-7.4"/>
    <path class="cls-3" d="M180.61,194.47c1.12-3.49.57-5.27-.99-5.9-1.76-.91-4.02,1.7-2.23,3.18.38-.86.42-.89,1.26-1.23,1.32.51,1.21,2.61,1.07,3.76-9.82.59-12.15-16.28-11.88-17.09-4.51,8.19,1.99,20.68,8.33,22.18.89-6.58,7.5-4.38,6.2-1.03-.55,2.37-3.09,1.64-3.27-.08-.61.28-.67.54-.69,1.34,4.99,7.57,8-4.62,2.2-5.14"/>
    <path class="cls-1" d="M147.11,142.5s.03-.03,0,0"/>
    <path class="cls-1" d="M154.36,135.62s-.07-.06-.1-.07c.04,0,.1.01.17.03-.03.01-.05.03-.06.05"/>
    <path class="cls-1" d="M159.71,147.41s.04.03.07.04c.08.12.15.23.21.34-.09-.13-.18-.26-.28-.38"/>
    <path class="cls-3" d="M142.7,122.76c1.35,2.59,2.17,5.29,1.83,6.18l3.95-1.12,3.86-.74,3.74-.37h3.62s3.49.3,3.49.3l3.34.63,3.19.92,3.03,1.19,2.86,1.44,2.67,1.67,2.49,1.88,2.29,2.06,2.09,2.22,1.88,2.37,1.67,2.49,1.45,2.6,1.22,2.68.98,2.74.74,2.79.48,2.82.22,2.82-.05,2.81-.33,2.77-.62,2.72-.06.18c16.46-27.31-14.34-59.53-50.02-46.06"/>
    <path class="cls-3" d="M170.95,169.68h0c1.08,0,1.96.88,1.96,1.96s-.88,1.96-1.96,1.96-1.96-.88-1.96-1.96.88-1.96,1.96-1.96M170.95,167.48c2.29,0,4.17,1.87,4.17,4.16s-1.87,4.15-4.17,4.15-4.17-1.87-4.17-4.15,1.87-4.16,4.17-4.16Z"/>
    <path class="cls-3" d="M172.97,165.93c2.26.88,3.88,3.08,3.88,5.64,0,1.42-.5,2.73-1.33,3.77l.02.09.54,2.98.44,3.05.26,2.5c32.05-13.67,8.88-66.37-31.97-52.93l1.45.75,1.89,1.11,1.87,1.22,1.84,1.33,1.8,1.43,1.77,1.54,1.73,1.64,1.68,1.74,1.63,1.83,1.58,1.93,1.53,2.02,1.46,2.11,1.4,2.2,1.33,2.29,1.26,2.38,1.19,2.46,1.11,2.54,1.02,2.62.6,1.73Z"/>
    <path class="cls-3" d="M173.49,176.96c.47,2.53.83,5.13,1.06,7.81l-2.84,1.06c-.52-2.9-1.17-5.7-1.94-8.42.38.08.78.12,1.18.12.91,0,1.76-.21,2.53-.57"/>
    <path class="cls-3" d="M138.92,216.17c0-.3.4-.35.63-.3.06.11.41,1.81,1.05,1.51,3.08-5.76-1.12-14.01-2.59-20.1,6.37-.65,11.38-2.97,16.16-7.51.72.52.91,1.04.94,2.11-.47,2.85-1.35,5.6-1.35,8.67.27,4.84,6.02,11.54,5.37,14.8h0,0s0,.02,0,.02h0c-6.63,21.73-46.12,19.01-20.19.8"/>
    <path class="cls-3" d="M133.93,117.5c32.49-24.48,85.65,4.36,71.09,54.76-1.12,3.49-3.41,5.58-2.74,10.62,1.92,7.4-5.67,18.3-1.15,28.08-6.17-1.26-8.9-7.58-7.38-13.07.96-4.29.59-7.39-.76-10.15-1.15-4.19-3.43-6.7-.79-10.79,1.31-.4,3.14-.99,4.4-.3,0,0,0,0,0,0h0l.65.36.39-.72-.66-.36s0,0,0,0c-1.26-.69-1.73-2.54-2.1-3.86.02-.04.04-.09.06-.13,1.25-.57,2.99-1.39,4.33-.87,0,0,0,0,.01,0l.7.27.3-.76-.7-.27s0,0-.01,0c-1.34-.52-2.04-2.28-2.58-3.54.01-.05.03-.1.04-.14,1.17-.72,2.78-1.76,4.18-1.42,0,0,0,0,.01,0,0,0,0,0,0,0l.73.18.2-.79-.73-.18s0,0-.01,0c-1.41-.34-2.33-2.02-3.04-3.2,0-.04.02-.08.02-.12,1.05-.88,2.51-2.15,3.95-2.02,0,0,0,0,.01,0,0,0,0,0,0,0l.74.07.08-.82-.74-.07s0,0-.01,0c-1.44-.14-2.6-1.67-3.47-2.74,0-.04,0-.08,0-.12.91-1.03,2.15-2.52,3.6-2.6h.01l.74-.04-.05-.82-.75.04s0,0-.01,0c-1.44.08-2.82-1.24-3.83-2.17,0-.05-.01-.11-.02-.16.74-1.16,1.75-2.8,3.16-3.09,0,0,0,0,.01,0h0l.73-.15-.17-.8-.73.15s0,0-.01,0c-1.42.3-2.99-.82-4.14-1.58,0-.02-.01-.04-.02-.06.55-1.26,1.29-3.06,2.65-3.57,0,0,0,0,.01,0l.7-.27-.29-.76-.7.26s0,0-.01,0c-1.37.52-3.11-.36-4.36-.93,0-.01,0-.02-.01-.03.35-1.33.79-3.24,2.05-3.96,0,0,0,0,.01,0l.65-.37-.41-.71-.65.37s0,0,0,0c-1.26.73-3.12.14-4.44-.23,0,0,0-.01,0-.02.14-1.37.28-3.32,1.42-4.23,0,0,0,0,.01,0l.58-.47-.51-.64-.58.47s0,0,0,0c-1.14.91-3.07.61-4.44.45-.08-1.37-.24-3.32.74-4.4,0,0,0,0,0,0h0s.5-.55.5-.55l-.61-.55-.5.55s0,0,0,0c-.97,1.07-2.91,1.09-4.28,1.14-.02-.01-.03-.03-.05-.04-.28-1.34-.73-3.24.07-4.45,0,0,0,0,0,0h0s.41-.62.41-.62l-.68-.45-.41.62s0,0,0,0c-.81,1.21-2.72,1.51-4.08,1.77-.02-.01-.04-.02-.07-.04-.48-1.29-1.22-3.1-.6-4.41,0,0,0,0,0-.01l.32-.68-.75-.35-.32.68s0,0,0,0c-.61,1.32-2.46,1.9-3.75,2.36-.02,0-.03-.01-.05-.02-.67-1.21-1.66-2.9-1.24-4.29,0,0,0,0,0-.01h0s.21-.72.21-.72l-.79-.23-.21.71s0,0,0,.01c-.42,1.39-2.17,2.24-3.38,2.88-.02,0-.03,0-.05,0-.83-1.1-2.04-2.64-1.83-4.08,0,0,0,0,0-.01l.11-.74-.81-.12-.11.74s0,0,0,.01c-.22,1.45-1.85,2.53-2.97,3.33,0,0,0,0-.01,0-.97-.98-2.39-2.35-2.36-3.81h0s.01-.76.01-.76h-.82s-.01.73-.01.73h0c-.03,1.47-1.49,2.75-2.49,3.7-1.08-.86-2.64-2.03-2.79-3.48,0,0,0,0,0-.01l-.08-.74-.82.09.08.74h0s0,0,0,.01c.15,1.45-1.14,2.9-2.02,3.96-.01,0-.03,0-.04,0-1.17-.73-2.87-1.72-3.19-3.15,0,0,0,0,0-.01,0,0,0,0,0,0l-.16-.73-.8.18.16.73s0,0,0,.01c.32,1.42-.8,3-1.54,4.16-1.24-.61-3.02-1.43-3.48-2.81,0,0,0,0,0-.01l-.24-.71-.78.26.23.71h0s0,0,0,.01c.46,1.37-.48,3.05-1.11,4.27l-.17-.24c-1.01-1.38-4.25-2.39-7.61-3.17"/>
    <path class="cls-3" d="M157.5,177.25h0c-.05,0-.11,0-.16,0-.07.03-.13.05-.2.07l-.28.03c-.14-.31-.28-.62-.42-.93h-.09l-.17-.28c-.12-.18-.25-.34-.37-.52l-.13-.18h-.09l-.22-.31-.45-.43c-.19-.13-.36-.28-.55-.42-.18-.11-.35-.24-.53-.35-.3-.17-.58-.34-.84-.56-.55-.47-1.12-.92-1.67-1.4l-.46-.45c-.15-.18-.3-.35-.45-.53l-.1-.07-.18-.18c-.07-.09-.14-.19-.2-.29-.14-.23-.27-.46-.4-.7-.12-.23-.22-.46-.32-.69l-.2-.61-.19-1.13c-.12-.7-.18-1.41-.29-2.11-.01-.08-.02-.15-.03-.23-.18-.39-.36-.78-.55-1.17-.1-.16-.21-.31-.33-.46l-.32-.44-.03-.07h-.1l-.47-.61-.86-1.01-.14-.19-.16-.38c-.22-.57-.4-1.15-.56-1.73-.17-.66-.31-1.33-.47-1.99-.05-.13-.08-.27-.11-.41l-.31-.56c-.15-.24-.32-.47-.47-.72-.21-.26-.43-.51-.63-.77l-.05-.08-.11-.13-.32-.27c-.23-.15-.47-.3-.71-.44-.58-.33-1.16-.64-1.76-.92-.18-.09-.35-.19-.52-.29-.46-.27-.92-.54-1.37-.84-.12-.1-.25-.18-.37-.28l-.07-.06-.07-.1c-.22-.16-.43-.32-.63-.5-.16-.12-.31-.24-.48-.34l-.16-.09-.08-.17-.12-.14-.17-.14-.2-.15-.23-.15c-.23-.12-.46-.24-.7-.36-.29-.13-.59-.25-.89-.37-.19-.07-.38-.14-.57-.2-.16-.05-.32-.09-.47-.14-.27-.05-.55-.08-.82-.1l-.75-.03-.45.03-.43.05-.38.1-.36.13-.33.15-.33.2-.3.22-.28.28-.28.31c-.18.25-.36.5-.53.76-.13.23-.26.46-.38.7l-.15.25-.39,1.19c-.01.33-.04.67-.04,1,0,.15,0,.29.01.43l.19,1.48c.13.83.29,1.64.41,2.47.07.5.16,1,.17,1.5,0,.18.01.35.02.53h-.06c-.09,1.63-.77,3.15-1.49,4.59l-4.26,6.43c-.31.47-.42.66-.11,1.23.38.61,1.31,1.15,1.8,1.67.21.22.4.45.58.69l.11.15c.1.16.19.31.27.47.33.73.43,1.78.45,2.55-.3,1.95-1.39,3.24,5.14,3.68.71.11.55,1.45-.03,1.44-1.35-.05-3.38-.35-4.53.12l-.11.05-.1.06-.09.07-.07.08-.06.08-.05.09-.03.09-.02.09v.1s0,.1,0,.1l.02.1.04.1c.08.13.16.25.24.38.23.36.5.83.67,1.22.06.35.11.7.14,1.02,0,.24-.02.47-.05.7l-.06.59c-.05.28-.1.56-.16.84-.14.57-.32,1.14-.47,1.71l-.1.43c-.04.2-.07.39-.08.59v.36s.02.17.02.17l.04.17.05.17.07.16.09.16.11.16.14.16.16.16.19.17.22.17.25.17.29.17.31.17c.43.17.87.33,1.31.47.45.14.91.26,1.37.36,5.49,1.44,10.95.8,16.19-1.35.73-.31,1.44-.65,2.15-1l1.24-.76c.09-.02.18-.04.27-.07v-.09c.09-.07.17-.15.26-.22.14-.11.28-.21.43-.31.18-.13.36-.26.53-.4.04-.04.08-.07.12-.12l.05-.11.24-.17c.4-.33.72-.74,1.03-1.15.14-.2.27-.4.39-.61.22-.33.43-.67.63-1.01l.14-.25.32-.09.21-.03c.14,0,.27-.01.4-.01l.17.02.05-.47c.01-.29.01-.58,0-.88-.03-.41-.08-.82-.14-1.23,0-.71-.02-1.42.02-2.13,0-.15.01-.29.02-.44.02-.23.03-.46.08-.68.03-.14.06-.28.09-.42.05-.18.1-.35.17-.53.05-.13.11-.25.16-.37l.21-.33.22-.31c.16-.14.31-.29.47-.42l.1-.07.83-.46-.28.85h0s1.09-1.97,1.09-1.97ZM132.26,165.35h0c-.08,0-.17.02-.26.02-.02.03-.02.05-.02.08-1.85-1.15-1.21-2.07-1.44-3.89-.15-.49-.54-.82-.77-1.13-.49-1.28-.44-1.89.03-3.1,0-1.13-2-.72-1.67-1.87,1.54-1.54,4.85-1.1,6.85-.56.49.26.98.51,1.46.74,1.62,1.31,2.77,2.51,3.57,4.64q-.03.2-.08.31h-.26c-1.28-.59-2.34-1.64-3.39-2.28-1.05-.36-1.12-.22-.97.83.62,1.41,3.2,2.3,3.2,4.14-.1.03-.59.22-.69.27-2.22-.17-3.56,1.52-5.57,1.79h0ZM126.14,173.62c-.97-.48-1.63-.93-1.7-1.52.43-1.36,4.77,2.01,1.7,1.52Z"/>
    <path class="cls-3" d="M137.32,215.36c-14.35,2.61-28.74,17.92-7.55,24.91,11.13,2.75,21.51,1.28,30.93-3.29.5-1.7,1.2-3.38,2.3-4.79h0c-.18.1-.37.18-.56.26l-2.4.91c.11-.9.21-1.81.34-2.7.03-.21.07-.42.11-.63.19-.96.57-1.85.93-2.76l.2-.03.44-.66.12-.34c.65-.55,1.29-1.09,1.87-1.71l.23-.29.1-.31.26-.21-.91-.52-.47-.38-1.21-1.78c-5.36,9.11-15.14,13.41-24.72,13.38-15.63-.32-13.74-12.96,0-19.06"/>
    <path class="cls-3" d="M118.42,257.9c-2.67-.12-5.37-.12-7.98-.15-.17-4.49-.05-8.83-.03-13.19,7.26,0,14.49.03,21.75.06.17-.03.31-.06.47-.09,5.67.12,11.6.22,17.38.22,2.11-.31,4.31-.22,6.54.12,2.28-.03,4.59-.06,6.87-.06,1.22.12,2.59-.27,3.95-.06,3.87-.06,5.14-.12,8.26-.12.33.03.67.09,1.08,0,4.64.03,9.46.21,14.21-.15.33.18,2.98-.03,3.42-.06q6.98,0,11.15.09c0,4.31-.03,8.64-.03,12.98-11.01.21-22.05.18-32.93-.06-9.07.27-18.1.37-27.03.24-.45-.03-.89-.06-1.34-.06q-14.57.24-25.75.31"/>
    <polygon class="cls-3" points="111.44 261.07 204.64 261.07 190.69 266.74 125.33 266.74 111.44 261.07"/>
    <path class="cls-3" d="M188.48,279.32v-9.19h-60.57v13.31c1.82.72,3.8,1.57,5.68,2.09v-7.78c0-1.58,1.2-2.88,2.66-2.88s2.66,1.3,2.66,2.88v9.22c1.67.33,3.34.7,5,.92v-9.57c0-1.89,1.43-3.44,3.17-3.44s3.17,1.55,3.17,3.44v10.29c1.38.1,2.76.17,4.14.22v-10.51c0-1.89,1.67-3.44,3.7-3.44s3.7,1.55,3.7,3.44v10.43c1.42-.05,2.83-.17,4.25-.28v-10.15c0-1.89,1.43-3.44,3.17-3.44s3.17,1.55,3.17,3.44v9.33c1.63-.26,3.26-.58,4.9-.94v-8.95c0-1.58,1.19-2.88,2.66-2.88s2.65,1.3,2.65,2.88v7.55c1.96-.62,3.92-1.33,5.88-2.08v-3.9Z"/>
    <path class="cls-4" d="M177.16,75.19h0l-8.04-1.07-1.97-9.57c-6.33-.53-12.71-.5-19.13,0l-1.7,9.66-8.13,1.07-4.38-8.86c-6.23,1.15-12.37,2.82-18.41,5.01l.8,9.66-7.51,3.16-6.6-7.34c-5.99,2.84-11.41,6.09-16.46,9.59l3.35,9.1-6.48,5.02-8.15-5.45c-5,4.29-9.44,8.81-13.51,13.48l5.6,8.01-4.99,6.42-9.37-3.14c-3.63,5.41-6.8,10.93-9.49,16.53l7.45,6.27-3.13,7.55-9.83-.61c-2.16,5.99-3.74,12.09-4.96,18.26l8.88,4.2-1.1,8.1-9.64,2.01c-.49,6.38-.42,12.71.03,19l9.64,1.7,1.07,8.1-8.85,4.41c1.25,6.26,2.9,12.38,4.99,18.36l9.76-.88,3.16,7.55-7.53,6.6c2.97,5.63,6.21,11.09,9.75,16.35l9.19-3.26,4.93,6.45-5.35,8.22c4.16,4.74,8.65,9.21,13.48,13.39l8-5.57,6.48,5.02-3.1,9.28c5.25,3.55,10.76,6.69,16.49,9.5l6.3-7.43,7.54,3.13-.55,9.77c5.94,2.11,12.06,3.76,18.37,4.93l4.17-8.83,8.12,1.07,1.98,9.59c6.3.52,12.65.52,19.04,0l1.73-9.59,8.12-1.1,4.41,8.77c6.12-1.01,12.25-2.7,18.37-4.93l-.82-9.74,7.54-3.07,6.6,7.33c5.62-2.71,11.09-5.9,16.43-9.56l-3.29-9.19,6.42-4.96,8.21,5.42c4.73-4.08,9.22-8.59,13.47-13.52l-5.57-8,4.96-6.39,9.34,3.14c3.37-5.08,6.56-10.58,9.55-16.5l-7.48-6.3,3.16-7.52,9.86.58c2.01-5.84,3.64-11.95,4.9-18.35l-8.84-4.14,1.09-8.17,9.58-1.96c.49-6.32.55-12.64,0-18.96l-9.64-1.69-1.03-8.06,8.82-4.47c-1.25-6.31-2.88-12.48-5.06-18.41l-9.69.93-2.99-7.52,7.19-6.54c-2.79-5.74-6-11.24-9.64-16.51l-9.09,3.38-5.01-6.54,5.44-8.17c-4.31-4.91-8.81-9.39-13.5-13.46l-8,5.61-6.53-4.96,3.1-9.32c-5.3-3.57-10.77-6.76-16.44-9.48l-6.26,7.41-7.62-3.1.6-9.81c-5.92-2.17-12.07-3.82-18.46-4.96l-4.13,8.84ZM157.87,94.13l5.02.13,4.95.38,4.88.62,4.8.86,4.72,1.09,4.62,1.32,4.53,1.54,4.43,1.75,4.32,1.96,4.2,2.16,4.08,2.35,3.96,2.54,3.82,2.73,3.69,2.9,3.54,3.07,3.39,3.24,3.23,3.39,3.07,3.55,2.9,3.69,2.72,3.83,2.54,3.96,2.35,4.09,2.15,4.21,1.95,4.32,1.74,4.43,1.53,4.53,1.31,4.62,1.09,4.71.86,4.79.62,4.87.38,4.94.13,5.01-.13,5.01-.38,4.94-.62,4.87-.86,4.79-1.09,4.71-1.31,4.62-1.53,4.52-1.75,4.42-1.95,4.31-2.15,4.2-2.35,4.08-2.54,3.95-2.72,3.82-2.9,3.68-3.07,3.54-3.23,3.39-3.39,3.23-3.54,3.07-3.69,2.9-3.82,2.72-3.96,2.54-4.08,2.35-4.2,2.15-4.32,1.95-4.42,1.75-4.53,1.53-4.62,1.31-4.72,1.09-4.8.86-4.88.62-4.95.38-5.02.13-5.02-.13-4.96-.38-4.88-.62-4.81-.86-4.72-1.09-4.63-1.31-4.54-1.53-4.44-1.75-4.33-1.95-4.22-2.15-4.1-2.35-3.97-2.54-3.84-2.72-3.7-2.9-3.55-3.07-3.4-3.23-3.24-3.39-3.08-3.54-2.91-3.68-2.73-3.82-2.55-3.95-2.36-4.08-2.17-4.2-1.96-4.31-1.76-4.42-1.54-4.52-1.32-4.62-1.1-4.71-.86-4.79-.62-4.87-.38-4.94-.13-5.01.13-5.01.38-4.94.62-4.87.86-4.79,1.1-4.71,1.32-4.62,1.54-4.53,1.76-4.43,1.97-4.32,2.17-4.21,2.36-4.09,2.55-3.96,2.73-3.83,2.91-3.69,3.08-3.55,3.24-3.39,3.4-3.24,3.55-3.07,3.7-2.9,3.84-2.73,3.97-2.54,4.1-2.36,4.22-2.16,4.33-1.96,4.44-1.75,4.54-1.54,4.63-1.32,4.72-1.09,4.8-.86,4.88-.62,4.95-.38,5.02-.13Z"/>
    <path class="cls-3" d="M126.17,311.64h0c1.96.51,3.94.98,5.93,1.4l4.09-8.67,13.01,1.71,1.95,9.43c4.44.26,8.88.26,13.32,0l1.7-9.42,13.01-1.76,4.36,8.66c4.36-.86,8.63-2.04,12.83-3.46l-.81-9.61,12.1-4.93,6.47,7.19c3.96-2.02,7.78-4.27,11.51-6.7l-3.23-9.02,10.32-7.97,8.07,5.32c3.31-2.99,6.45-6.15,9.44-9.47l-5.47-7.87,7.98-10.29,9.13,3.06c2.4-3.75,4.61-7.62,6.69-11.56l-7.32-6.17,5.07-12.06,9.65.57c1.35-4.22,2.49-8.51,3.42-12.85l-8.67-4.06,1.74-13.05,9.41-1.93c.25-4.41.28-8.82.02-13.24l-9.49-1.66-1.66-12.94,8.64-4.38c-.95-4.36-2.1-8.67-3.52-12.9l-9.58.92-4.81-12.09,7.02-6.39c-2.05-3.98-4.3-7.84-6.76-11.58l-8.94,3.32-8.03-10.48,5.33-8c-3-3.28-6.13-6.44-9.44-9.42l-7.84,5.49-10.47-7.95,3.05-9.15c-3.72-2.4-7.54-4.63-11.48-6.64l-6.13,7.26-12.2-4.97.59-9.68c-4.23-1.43-8.54-2.57-12.91-3.47l-4.07,8.71-12.95-1.73-1.93-9.41c-4.46-.26-8.93-.25-13.39,0l-1.67,9.49-13.05,1.72-4.3-8.7c-4.36.92-8.65,2.08-12.88,3.5l.79,9.49-12.05,5.07-6.5-7.22c-3.97,2.01-7.8,4.26-11.51,6.71l3.29,8.94-10.4,8.06-8.02-5.36c-3.31,2.98-6.46,6.13-9.44,9.44l5.5,7.86-8.02,10.32-9.17-3.07c-2.4,3.75-4.64,7.6-6.65,11.57l7.32,6.16-5.02,12.11-9.67-.6c-1.39,4.19-2.52,8.45-3.45,12.76l8.71,4.12-1.75,12.96-9.46,1.97c-.23,4.43-.2,8.86.03,13.29l9.46,1.67,1.71,12.99-8.67,4.33c.95,4.34,2.12,8.61,3.48,12.83l9.57-.86,5.08,12.12-7.33,6.43c2.13,3.91,4.41,7.73,6.83,11.46l9.01-3.2,7.9,10.35-5.24,8.05c3,3.28,6.14,6.41,9.43,9.38l7.86-5.47,10.38,8.05-3.04,9.1c3.74,2.41,7.59,4.61,11.54,6.64l6.17-7.28,12.09,5.03-.54,9.61c2.29.76,4.6,1.44,6.93,2.06M157.87,94.13l5.02.13,4.95.38,4.88.62,4.8.86,4.72,1.09,4.62,1.32,4.53,1.54,4.43,1.75,4.32,1.96,4.2,2.16,4.08,2.35,3.96,2.54,3.82,2.73,3.69,2.9,3.54,3.07,3.39,3.24,3.23,3.39,3.07,3.55,2.9,3.69,2.72,3.83,2.54,3.96,2.35,4.09,2.15,4.21,1.95,4.32,1.74,4.43,1.53,4.53,1.31,4.62,1.09,4.71.86,4.79.62,4.87.38,4.94.13,5.01-.13,5.01-.38,4.94-.62,4.87-.86,4.79-1.09,4.71-1.31,4.62-1.53,4.52-1.75,4.42-1.95,4.31-2.15,4.2-2.35,4.08-2.54,3.95-2.72,3.82-2.9,3.68-3.07,3.54-3.23,3.39-3.39,3.23-3.54,3.07-3.69,2.9-3.82,2.72-3.96,2.54-4.08,2.35-4.2,2.15-4.32,1.95-4.42,1.75-4.53,1.53-4.62,1.31-4.72,1.09-4.8.86-4.88.62-4.95.38-5.02.13-5.02-.13-4.96-.38-4.88-.62-4.81-.86-4.72-1.09-4.63-1.31-4.54-1.53-4.44-1.75-4.33-1.95-4.22-2.15-4.1-2.35-3.97-2.54-3.84-2.72-3.7-2.9-3.55-3.07-3.4-3.23-3.24-3.39-3.08-3.54-2.91-3.68-2.73-3.82-2.55-3.95-2.36-4.08-2.17-4.2-1.96-4.31-1.76-4.42-1.54-4.52-1.32-4.62-1.1-4.71-.86-4.79-.62-4.87-.38-4.94-.13-5.01.13-5.01.38-4.94.62-4.87.86-4.79,1.1-4.71,1.32-4.62,1.54-4.53,1.76-4.43,1.97-4.32,2.17-4.21,2.36-4.09,2.55-3.96,2.73-3.83,2.91-3.69,3.08-3.55,3.24-3.39,3.4-3.24,3.55-3.07,3.7-2.9,3.84-2.73,3.97-2.54,4.1-2.36,4.22-2.16,4.33-1.96,4.44-1.75,4.54-1.54,4.63-1.32,4.72-1.09,4.8-.86,4.88-.62,4.95-.38,5.02-.13Z"/>
    <path class="cls-4" d="M157.87,90.71h0c55.74,0,100.93,45.41,100.93,101s-45.2,100.84-100.93,100.84-101.25-45.25-101.25-100.84,45.51-101,101.25-101M157.87,94.13l5.02.13,4.95.38,4.88.62,4.8.86,4.72,1.09,4.62,1.32,4.53,1.54,4.43,1.75,4.32,1.96,4.2,2.16,4.08,2.35,3.96,2.54,3.82,2.73,3.69,2.9,3.54,3.07,3.39,3.24,3.23,3.39,3.07,3.55,2.9,3.69,2.72,3.83,2.54,3.96,2.35,4.09,2.15,4.21,1.95,4.32,1.74,4.43,1.53,4.53,1.31,4.62,1.09,4.71.86,4.79.62,4.87.38,4.94.13,5.01-.13,5.01-.38,4.94-.62,4.87-.86,4.79-1.09,4.71-1.31,4.62-1.53,4.52-1.75,4.42-1.95,4.31-2.15,4.2-2.35,4.08-2.54,3.95-2.72,3.82-2.9,3.68-3.07,3.54-3.23,3.39-3.39,3.23-3.54,3.07-3.69,2.9-3.82,2.72-3.96,2.54-4.08,2.35-4.2,2.15-4.32,1.95-4.42,1.75-4.53,1.53-4.62,1.31-4.72,1.09-4.8.86-4.88.62-4.95.38-5.02.13-5.02-.13-4.96-.38-4.88-.62-4.81-.86-4.72-1.09-4.63-1.31-4.54-1.53-4.44-1.75-4.33-1.95-4.22-2.15-4.1-2.35-3.97-2.54-3.84-2.72-3.7-2.9-3.55-3.07-3.4-3.23-3.24-3.39-3.08-3.54-2.91-3.68-2.73-3.82-2.55-3.95-2.36-4.08-2.17-4.2-1.96-4.31-1.76-4.42-1.54-4.52-1.32-4.62-1.1-4.71-.86-4.79-.62-4.87-.38-4.94-.13-5.01.13-5.01.38-4.94.62-4.87.86-4.79,1.1-4.71,1.32-4.62,1.54-4.53,1.76-4.43,1.97-4.32,2.17-4.21,2.36-4.09,2.55-3.96,2.73-3.83,2.91-3.69,3.08-3.55,3.24-3.39,3.4-3.24,3.55-3.07,3.7-2.9,3.84-2.73,3.97-2.54,4.1-2.36,4.22-2.16,4.33-1.96,4.44-1.75,4.54-1.54,4.63-1.32,4.72-1.09,4.8-.86,4.88-.62,4.95-.38,5.02-.13Z"/>
  </g>
  <rect class="cls-6" x="981.76" y="139.28" width="49.74" height="31.7"/>
  <polygon class="cls-4" points="657.81 232.05 657.81 62.46 771.49 62.46 771.49 108.45 717.74 108.45 717.74 124.78 766.49 124.78 766.49 168.23 717.74 168.23 717.74 186.07 772.88 186.07 772.88 232.05 657.81 232.05"/>
  <path class="cls-4" d="M463.59,129.76c-5.59-5.34-11.26-9.33-17.08-11.94-5.79-2.65-11.93-3.95-18.35-3.95-9.99,0-18.04,3.08-24.1,9.21-6.06,6.13-9.11,14.31-9.11,24.51s2.89,17.91,8.72,23.84c5.79,5.97,13.59,8.94,23.35,8.94,5.87,0,11.85-1.26,17.92-3.76,6.1-2.53,12.72-6.49,19.94-11.98l-1.98,63.82c-6.66,2.69-13.32,4.75-19.98,6.09-6.66,1.34-13.32,2.02-19.98,2.02-8.28,0-16.25-.91-23.9-2.77-7.69-1.86-14.59-4.51-20.81-7.91-15.02-8.62-26.36-19.57-34.05-32.78-7.73-13.21-11.57-28.35-11.57-45.51,0-12.65,2.18-24.4,6.58-35.23,4.36-10.8,10.74-20.32,19.06-28.59,8.44-8.34,18.23-14.67,29.33-18.94,11.14-4.31,23.15-6.45,36.07-6.45,6.9,0,13.68.71,20.37,2.13,6.7,1.42,13.24,3.56,19.58,6.45v62.79Z"/>
  <path class="cls-4" d="M867.94,170.41h25.41l-5.19-19.22c-2.58-9.73-4.32-17.24-5.23-22.5-.95-5.22-1.51-10.16-1.74-14.79h-1.03c-.24,4.63-.83,9.57-1.74,14.79-.95,5.26-2.69,12.77-5.23,22.5l-5.23,19.22ZM786.88,232.05l60.61-169.59h68.06l59.46,169.59h-65.72l-5.47-21.31h-46.1l-5.23,21.31h-65.6Z"/>
  <path class="cls-4" d="M547.49,106.11h0v33.14h9.51c5.83,0,10.27-1.42,13.4-4.23,3.13-2.81,4.72-6.84,4.72-12.1s-1.59-9.57-4.72-12.46c-3.13-2.89-7.57-4.35-13.4-4.35h-9.51ZM487.56,232.05V62.46h76.9c22.28,0,39.32,4.9,51.09,14.71,11.77,9.81,17.64,23.96,17.64,42.39,0,12.06-2.97,21.98-8.88,29.77-5.94,7.83-13.91,12.38-23.98,13.68l45.39,69.04h-68.5l-29.73-55.95v55.95h-59.93Z"/>
  <path class="cls-4" d="M1060.75,231.89h0V64.3h80.22c17.19,0,30.6,4.03,40.21,12.07,9.61,8.05,14.42,19.26,14.42,33.6,0,9.14-2.27,16.76-6.8,22.82-4.57,6.1-10.98,10.04-19.3,11.88,11.37,2.34,19.85,6.8,25.4,13.36,5.59,6.56,8.36,15.39,8.36,26.45,0,15.67-5.28,27.47-15.86,35.44-10.55,7.97-26.1,11.96-46.62,11.96h-80.03ZM1117.29,163.67h0v26.77h10.08c6.02,0,10.67-1.17,13.91-3.48,3.24-2.34,4.85-5.63,4.85-9.92s-1.6-7.66-4.85-9.92c-3.24-2.3-7.89-3.44-13.91-3.44h-10.08ZM1117.29,104.15v23.44h7.89c4.88,0,8.6-1.02,11.18-3.05,2.54-1.99,3.83-4.92,3.83-8.71s-1.29-6.72-3.83-8.71c-2.58-1.99-6.29-2.97-11.18-2.97h-7.89Z"/>
  <path class="cls-4" d="M1194.81,231.89h0l59.75-167.59h67.09l58.61,167.59h-64.79l-5.39-21.06h-45.44l-5.16,21.06h-64.67ZM1274.72,170.97h25.05l-5.12-18.99c-2.54-9.61-4.26-17.04-5.16-22.23-.94-5.16-1.48-10.04-1.72-14.61h-1.02c-.23,4.57-.82,9.46-1.72,14.61-.94,5.2-2.66,12.62-5.16,22.23l-5.16,18.99Z"/>
</svg>