<?xml version="1.0" encoding="UTF-8"?>
<svg xmlns="http://www.w3.org/2000/svg" xmlns:xlink="http://www.w3.org/1999/xlink" width="20px" height="20px" viewBox="0 0 20 20" version="1.1">
<g id="surface1">
<path style=" stroke:none;fill-rule:nonzero;fill:rgb(95.686275%,38.431373%,41.176471%);fill-opacity:1;" d="M 0 2.5 C 0 1.121094 1.121094 0 2.5 0 L 8.75 0 L 8.75 5 C 8.75 5.691406 9.308594 6.25 10 6.25 L 15 6.25 L 15 11.875 L 6.875 11.875 C 5.496094 11.875 4.375 12.996094 4.375 14.375 L 4.375 20 L 2.5 20 C 1.121094 20 0 18.878906 0 17.5 Z M 15 5 L 10 5 L 10 0 Z M 6.875 13.75 L 8.125 13.75 C 9.332031 13.75 10.3125 14.730469 10.3125 15.9375 C 10.3125 17.144531 9.332031 18.125 8.125 18.125 L 7.5 18.125 L 7.5 19.375 C 7.5 19.71875 7.21875 20 6.875 20 C 6.53125 20 6.25 19.71875 6.25 19.375 L 6.25 14.375 C 6.25 14.03125 6.53125 13.75 6.875 13.75 Z M 8.125 16.875 C 8.644531 16.875 9.0625 16.457031 9.0625 15.9375 C 9.0625 15.417969 8.644531 15 8.125 15 L 7.5 15 L 7.5 16.875 Z M 11.875 13.75 L 13.125 13.75 C 14.160156 13.75 15 14.589844 15 15.625 L 15 18.125 C 15 19.160156 14.160156 20 13.125 20 L 11.875 20 C 11.53125 20 11.25 19.71875 11.25 19.375 L 11.25 14.375 C 11.25 14.03125 11.53125 13.75 11.875 13.75 Z M 13.125 18.75 C 13.46875 18.75 13.75 18.46875 13.75 18.125 L 13.75 15.625 C 13.75 15.28125 13.46875 15 13.125 15 L 12.5 15 L 12.5 18.75 Z M 16.25 14.375 C 16.25 14.03125 16.53125 13.75 16.875 13.75 L 18.75 13.75 C 19.09375 13.75 19.375 14.03125 19.375 14.375 C 19.375 14.71875 19.09375 15 18.75 15 L 17.5 15 L 17.5 16.25 L 18.75 16.25 C 19.09375 16.25 19.375 16.53125 19.375 16.875 C 19.375 17.21875 19.09375 17.5 18.75 17.5 L 17.5 17.5 L 17.5 19.375 C 17.5 19.71875 17.21875 20 16.875 20 C 16.53125 20 16.25 19.71875 16.25 19.375 Z M 16.25 14.375 "/>
</g>
</svg>
